REM DIRINDEX 1\2,1\3,1\4,1\5,1\6
REM DIRNAME cjc129,folder01,folder02,folder03,folder04,folder05
TITLE ""
FILE "DISC4Track04.mp3" MP3
  TRACK 01 AUDIO
    TITLE "0:"
    INDEX 01 00:00:00
  TRACK 02 AUDIO
    TITLE "3:cjc129_3015"
    INDEX 01 00:00:05
  TRACK 03 AUDIO
    TITLE "0:"
    INDEX 01 00:01:48
  TRACK 04 AUDIO
    TITLE "5:cjc129_3016"
    INDEX 01 00:02:04
  TRACK 05 AUDIO
    TITLE "0:"
    INDEX 01 00:04:11
  TRACK 06 AUDIO
    TITLE "4:cjc129_3017"
    INDEX 01 00:05:03
  TRACK 07 AUDIO
    TITLE "0:"
    INDEX 01 00:06:43
  TRACK 08 AUDIO
    TITLE "6:cjc129_3018"
    INDEX 01 00:07:00
  TRACK 09 AUDIO
    TITLE "0:"
    INDEX 01 00:11:42
  TRACK 10 AUDIO
    TITLE "3:cjc129_3019"
    INDEX 01 00:13:16
  TRACK 11 AUDIO
    TITLE "0:"
    INDEX 01 00:14:49
  TRACK 12 AUDIO
    TITLE "5:cjc129_3020"
    INDEX 01 00:15:09
  TRACK 13 AUDIO
    TITLE "0:"
    INDEX 01 00:17:06
  TRACK 14 AUDIO
    TITLE "4:cjc129_3021"
    INDEX 01 00:17:70
  TRACK 15 AUDIO
    TITLE "0:"
    INDEX 01 00:19:30
  TRACK 16 AUDIO
    TITLE "6:cjc129_3022"
    INDEX 01 00:19:63
  TRACK 17 AUDIO
    TITLE "0:"
    INDEX 01 00:24:00
  TRACK 18 AUDIO
    TITLE "2:cjc129_3023"
    INDEX 01 00:25:48
  TRACK 19 AUDIO
    TITLE "0:"
    INDEX 01 00:30:01
  TRACK 20 AUDIO
    TITLE "3:cjc129_3024"
    INDEX 01 00:31:14
  TRACK 21 AUDIO
    TITLE "0:"
    INDEX 01 00:32:66
  TRACK 22 AUDIO
    TITLE "5:cjc129_3025"
    INDEX 01 00:33:22
  TRACK 23 AUDIO
    TITLE "0:"
    INDEX 01 00:35:57
  TRACK 24 AUDIO
    TITLE "4:cjc129_3026"
    INDEX 01 00:36:48
  TRACK 25 AUDIO
    TITLE "0:"
    INDEX 01 00:38:26
  TRACK 26 AUDIO
    TITLE "6:cjc129_3027"
    INDEX 01 00:38:57
  TRACK 27 AUDIO
    TITLE "0:"
    INDEX 01 00:42:35
  TRACK 28 AUDIO
    TITLE "3:cjc129_3028"
    INDEX 01 00:44:09
  TRACK 29 AUDIO
    TITLE "0:"
    INDEX 01 00:48:36
  TRACK 30 AUDIO
    TITLE "5:cjc129_3029"
    INDEX 01 00:48:67
  TRACK 31 AUDIO
    TITLE "0:"
    INDEX 01 00:52:51
  TRACK 32 AUDIO
    TITLE "4:cjc129_3030"
    INDEX 01 00:53:39
  TRACK 33 AUDIO
    TITLE "0:"
    INDEX 01 00:57:68
  TRACK 34 AUDIO
    TITLE "6:cjc129_3031"
    INDEX 01 00:58:22
  TRACK 35 AUDIO
    TITLE "0:"
    INDEX 01 01:03:61
  TRACK 36 AUDIO
    TITLE "3:cjc129_3032"
    INDEX 01 01:05:36
  TRACK 37 AUDIO
    TITLE "0:"
    INDEX 01 01:09:20
  TRACK 38 AUDIO
    TITLE "5:cjc129_3033"
    INDEX 01 01:09:52
  TRACK 39 AUDIO
    TITLE "0:"
    INDEX 01 01:12:30
  TRACK 40 AUDIO
    TITLE "4:cjc129_3034"
    INDEX 01 01:13:20
  TRACK 41 AUDIO
    TITLE "0:"
    INDEX 01 01:17:04
  TRACK 42 AUDIO
    TITLE "6:cjc129_3035"
    INDEX 01 01:17:33
  TRACK 43 AUDIO
    TITLE "0:"
    INDEX 01 01:21:70
  TRACK 44 AUDIO
    TITLE "3:cjc129_3036"
    INDEX 01 01:23:46
  TRACK 45 AUDIO
    TITLE "0:"
    INDEX 01 01:25:04
  TRACK 46 AUDIO
    TITLE "5:cjc129_3037"
    INDEX 01 01:25:43
  TRACK 47 AUDIO
    TITLE "0:"
    INDEX 01 01:30:03
  TRACK 48 AUDIO
    TITLE "4:cjc129_3038"
    INDEX 01 01:30:67
  TRACK 49 AUDIO
    TITLE "0:"
    INDEX 01 01:32:27
  TRACK 50 AUDIO
    TITLE "6:cjc129_3039"
    INDEX 01 01:32:64
  TRACK 51 AUDIO
    TITLE "0:"
    INDEX 01 01:36:43
  TRACK 52 AUDIO
    TITLE "3:cjc129_3040"
    INDEX 01 01:38:18
  TRACK 53 AUDIO
    TITLE "0:"
    INDEX 01 01:41:01
  TRACK 54 AUDIO
    TITLE "5:cjc129_3041"
    INDEX 01 01:41:32
  TRACK 55 AUDIO
    TITLE "0:"
    INDEX 01 01:44:50
  TRACK 56 AUDIO
    TITLE "4:cjc129_3042"
    INDEX 01 01:45:40
  TRACK 57 AUDIO
    TITLE "0:"
    INDEX 01 01:48:24
  TRACK 58 AUDIO
    TITLE "6:cjc129_3043"
    INDEX 01 01:48:54
  TRACK 59 AUDIO
    TITLE "0:"
    INDEX 01 01:53:21
